<svg width="198" height="197" viewBox="0 0 198 197" fill="none" xmlns="http://www.w3.org/2000/svg">
<path fill-rule="evenodd" clip-rule="evenodd" d="M52.2327 196.315C73.1277 196.315 91.1232 183.901 99.2462 166.046C107.369 183.901 125.365 196.315 146.26 196.315C174.77 196.315 197.883 173.203 197.883 144.692C197.883 124.553 186.351 107.108 169.531 98.599C186.351 90.09 197.883 72.6447 197.883 52.5061C197.883 23.9954 174.77 0.882812 146.26 0.882812C125.365 0.882812 107.369 13.2969 99.2462 31.1519C91.1232 13.2969 73.1277 0.882812 52.2327 0.882812C23.7219 0.882812 0.609375 23.9954 0.609375 52.5061C0.609375 72.6447 12.1409 90.09 28.9612 98.599C12.1409 107.108 0.609375 124.553 0.609375 144.692C0.609375 173.203 23.7219 196.315 52.2327 196.315Z" fill="white"/>
</svg>
